<?xml version="1.0" encoding="UTF-8"?>
<svg id="Layer_2" data-name="Layer 2" xmlns="http://www.w3.org/2000/svg" viewBox="0 0 165.33 195.72">
  <defs>
    <style>
      .cls-1 {
        fill: #9fcc00;
      }

      .cls-2 {
        fill: #feca03;
      }
    </style>
  </defs>
  <g id="Layer_1-2" data-name="Layer 1">
    <g>
      <path d="m162.81,127.27c-.98.71-2.19,1.14-3.56,1.19-3.18.08-6.36.03-9.54.03-2.71,0-2.71.01-2.71,2.62-.01,8.66.01,17.31-.01,25.97,0,.24,0,.47-.03.7-.13,3.25-1.21,6.03-2.97,8.12-9.71-16.4-30.64-28.84-56.25-32.8,1.58,1.94,2.51,4.41,2.51,7.11,0,6.26-5.08,11.34-11.34,11.34s-11.34-5.08-11.34-11.34c0-3.36,1.46-6.37,3.78-8.45-.42-.01-.84-.01-1.26-.01-10.59,0-20.68,1.42-29.92,3.99-4.67,5.79-9.97,10.78-15.76,14.77.03-1.76.07-3.51.14-5.26.04-1.21.04-2.4-.01-3.57v-.1c-.11-2.39-.4-4.7-.91-6.92-1-4.56-2.83-8.81-5.56-12.85-.75-1.14-1.59-2.26-2.5-3.36-7.77-9.41-12.44-20.4-14.45-32.41-3.39-20.24.81-38.84,12.76-55.54,6.76-9.43,15.01-16.68,24.64-21.83.84-.45,1.69-.88,2.54-1.3,1.73-.84,3.49-1.6,5.29-2.3-.64,2.58-1.09,5.17-1.35,7.78-.92,8.77.18,17.66,3.05,26.26-5.15,1.07-9.02,5.63-9.02,11.1,0,6.26,5.08,11.34,11.34,11.34,2.89,0,5.54-1.09,7.55-2.87,1.13,1.62,2.3,3.21,3.54,4.77,8.95,11.27,21.17,21.09,35.8,28.19-.77-1.53-1.21-3.28-1.21-5.12,0-6.26,5.08-11.34,11.35-11.34s11.34,5.08,11.34,11.34c0,4.98-3.21,9.2-7.66,10.73,15.4,5.12,30.92,6.74,45.29,5.27,1.1,2.22,2.2,4.44,3.31,6.67,1.39,2.82,2.79,5.65,4.2,8.48.42.85.85,1.72,1.13,2.62.88,2.76-.14,5.48-2.2,6.99Z"/>
      <path d="m138.11,169.63c-1.94.53-4.1.64-6.42.24-6.33-1.07-12.66-2.12-19-3.15-2.26-.38-2.36-.27-2.36,2.05-.01,6.62,0,13.24-.01,19.86-.01,4.98-3.11,7.75-7.98,6.96-11.66-1.88-23.29-3.88-34.95-5.8-.01-.01-.03-.01-.04-.01-3.57-.6-7.14-1.2-10.73-1.78-8.27-1.38-16.54-2.76-24.83-4.14-.43-.07-.88-.15-1.31-.24-4.18-.86-6.01-3.04-6.01-7.25,0-5.77-.1-11.56-.11-17.35l4.02-2.76c1-.7,1.99-1.41,2.97-2.16.14-.11.29-.22.43-.33.4-.32.81-.64,1.21-.96,1.77-1.44,3.5-2.96,5.19-4.56.36-.36.73-.71,1.09-1.07.18-.18.38-.38.54-.56.38-.38.75-.75,1.1-1.14,1.1-1.14,2.16-2.33,3.21-3.56,5.34-1.35,10.86-2.29,16.5-2.78-.01.36-.03.73-.03,1.09,0,10.1,8.22,18.31,18.31,18.31,9.44,0,17.22-7.17,18.22-16.36.85.22,1.69.46,2.52.71.31.08.61.18.91.26.74.22,1.45.46,2.18.7.91.31,1.81.61,2.71.95.89.32,1.77.67,2.64,1.02.75.31,1.49.61,2.22.93.28.11.54.24.81.36.59.26,1.17.53,1.74.81,1,.47,1.98.98,2.94,1.49.64.33,1.27.68,1.88,1.03.08.06.15.1.24.14.77.45,1.52.89,2.26,1.37.53.32,1.05.67,1.56,1,.07.04.14.08.2.13.31.21.6.42.89.61.61.43,1.2.85,1.78,1.3.5.36.98.74,1.45,1.12.21.17.42.33.63.5.53.43,1.06.88,1.58,1.33.04.04.08.07.13.13.56.49,1.12.99,1.65,1.51.03.03.06.04.07.07.57.54,1.12,1.09,1.65,1.65.03.03.07.07.1.1.4.43.81.88,1.2,1.32.04.04.08.08.11.14.08.08.17.17.24.25,1.74,2.02,3.29,4.16,4.6,6.37l.11.18Z"/>
      <path class="cls-1" d="m138.11,169.63c-1.94.53-4.1.64-6.42.24-6.33-1.07-12.66-2.12-19-3.15-2.26-.38-2.36-.27-2.36,2.05-.01,6.62,0,13.24-.01,19.86-.01,4.98-3.11,7.75-7.98,6.96-11.66-1.88-23.29-3.88-34.95-5.8-.01-.01-.03-.01-.04-.01-3.57-.6-7.14-1.2-10.73-1.78-8.27-1.38-16.54-2.76-24.83-4.14-.43-.07-.88-.15-1.31-.24-4.18-.86-6.01-3.04-6.01-7.25,0-5.77-.1-11.56-.11-17.35l4.02-2.76c1-.7,1.99-1.41,2.97-2.16.14-.11.29-.22.43-.33.4-.32.81-.64,1.21-.96,1.77-1.44,3.5-2.96,5.19-4.56.36-.36.73-.71,1.09-1.07.18-.18.38-.38.54-.56.38-.38.75-.75,1.1-1.14,1.1-1.14,2.16-2.33,3.21-3.56,5.34-1.35,10.86-2.29,16.5-2.78-.01.36-.03.73-.03,1.09,0,10.1,8.22,18.31,18.31,18.31,9.44,0,17.22-7.17,18.22-16.36.85.22,1.69.46,2.52.71.31.08.61.18.91.26.74.22,1.45.46,2.18.7.91.31,1.81.61,2.71.95.89.32,1.77.67,2.64,1.02.75.31,1.49.61,2.22.93.28.11.54.24.81.36.59.26,1.17.53,1.74.81,1,.47,1.98.98,2.94,1.49.64.33,1.27.68,1.88,1.03.08.06.15.1.24.14.77.45,1.52.89,2.26,1.37.53.32,1.05.67,1.56,1,.07.04.14.08.2.13.31.21.6.42.89.61.61.43,1.2.85,1.78,1.3.5.36.98.74,1.45,1.12.21.17.42.33.63.5.53.43,1.06.88,1.58,1.33.04.04.08.07.13.13.56.49,1.12.99,1.65,1.51.03.03.06.04.07.07.57.54,1.12,1.09,1.65,1.65.03.03.07.07.1.1.4.43.81.88,1.2,1.32.04.04.08.08.11.14.08.08.17.17.24.25,1.74,2.02,3.29,4.16,4.6,6.37l.11.18Z"/>
      <path class="cls-2" d="m153,95.82c-2.55.18-5.13.25-7.73.22h-.11c-.73-.01-1.45-.03-2.18-.06-.39,0-.78-.01-1.17-.04-.49-.01-.99-.04-1.48-.07-.31-.01-.6-.04-.91-.06-.64-.04-1.27-.1-1.91-.15-.18-.01-.36-.03-.54-.04-.67-.07-1.34-.13-2.01-.21-.81-.08-1.62-.2-2.44-.31-.67-.08-1.33-.18-1.99-.29-.33-.04-.67-.1-.99-.15-1.76-.29-3.51-.63-5.26-1.02.93-2.2,1.44-4.63,1.44-7.13,0-10.1-8.22-18.31-18.31-18.31-4.83,0-9.23,1.88-12.52,4.97-.25.22-.49.47-.73.71-.71.73-1.34,1.52-1.91,2.36-.27.38-.5.75-.73,1.14-.22.39-.43.78-.63,1.2s-.38.84-.54,1.26h-.01c-.28-.18-.57-.36-.85-.54-.28-.18-.56-.35-.84-.54-8.42-5.54-15.82-12.19-21.72-19.64-1.1-1.38-2.18-2.83-3.29-4.42l-4.49-6.43-5.86,5.2c-.81.73-1.84,1.12-2.92,1.12-2.41,0-4.37-1.95-4.37-4.37,0-2.06,1.46-3.85,3.47-4.28l7.67-1.59-2.48-7.43c-2.61-7.84-3.53-15.69-2.73-23.35.11-1.1.27-2.19.45-3.28.21-1.2.46-2.37.74-3.53l1.07-4.31c.96-.28,1.94-.53,2.91-.77.29-.07.6-.14.89-.21.93-.22,1.88-.4,2.83-.56,1.93-.33,3.88-.59,5.8-.91h13.75c4.24.79,8.52,1.3,12.71,2.48,15.43,4.39,28.12,12.86,38.12,25.38,2.96,3.7,5.5,7.62,7.62,11.73,2.93,5.65,5.08,11.66,6.51,18.01,1.46,6.49,2.01,13.08,1.6,19.72-.25,4.46.77,8.4,2.87,12.37,1.07,2.04,2.13,4.07,3.18,6.12Z"/>
    </g>
  </g>
</svg>